<svg id="visual" viewBox="0 0 1200 600" width="1200" height="600" xmlns="http://www.w3.org/2000/svg" xmlns:xlink="http://www.w3.org/1999/xlink" version="1.1"><rect x="0" y="0" width="1200" height="600" fill="#001220"></rect><path d="M0 413L14.3 408C28.7 403 57.3 393 85.8 388.7C114.3 384.3 142.7 385.7 171.2 381.8C199.7 378 228.3 369 257 369.3C285.7 369.7 314.3 379.3 343 388.3C371.7 397.3 400.3 405.7 428.8 408.2C457.3 410.7 485.7 407.3 514.2 406.5C542.7 405.7 571.3 407.3 600 408.3C628.7 409.3 657.3 409.7 685.8 404.7C714.3 399.7 742.7 389.3 771.2 391C799.7 392.7 828.3 406.3 857 411.7C885.7 417 914.3 414 943 410.5C971.7 407 1000.3 403 1028.8 398.8C1057.3 394.7 1085.7 390.3 1114.2 394.2C1142.7 398 1171.3 410 1185.7 416L1200 422L1200 601L1185.7 601C1171.3 601 1142.7 601 1114.2 601C1085.7 601 1057.3 601 1028.8 601C1000.3 601 971.7 601 943 601C914.3 601 885.7 601 857 601C828.3 601 799.7 601 771.2 601C742.7 601 714.3 601 685.8 601C657.3 601 628.7 601 600 601C571.3 601 542.7 601 514.2 601C485.7 601 457.3 601 428.8 601C400.3 601 371.7 601 343 601C314.3 601 285.7 601 257 601C228.3 601 199.7 601 171.2 601C142.7 601 114.3 601 85.8 601C57.3 601 28.7 601 14.3 601L0 601Z" fill="#fa7268"></path><path d="M0 413L14.3 416C28.7 419 57.3 425 85.8 434C114.3 443 142.7 455 171.2 460.7C199.7 466.3 228.3 465.7 257 465.7C285.7 465.7 314.3 466.3 343 461.5C371.7 456.7 400.3 446.3 428.8 440.5C457.3 434.7 485.7 433.3 514.2 434.2C542.7 435 571.3 438 600 440.7C628.7 443.3 657.3 445.7 685.8 448.5C714.3 451.3 742.7 454.7 771.2 447C799.7 439.3 828.3 420.7 857 417.7C885.7 414.7 914.3 427.3 943 428.3C971.7 429.3 1000.3 418.7 1028.8 422.3C1057.3 426 1085.7 444 1114.2 452.2C1142.7 460.3 1171.3 458.7 1185.7 457.8L1200 457L1200 601L1185.7 601C1171.3 601 1142.7 601 1114.2 601C1085.7 601 1057.3 601 1028.8 601C1000.3 601 971.7 601 943 601C914.3 601 885.7 601 857 601C828.3 601 799.7 601 771.2 601C742.7 601 714.3 601 685.8 601C657.3 601 628.7 601 600 601C571.3 601 542.7 601 514.2 601C485.7 601 457.3 601 428.8 601C400.3 601 371.7 601 343 601C314.3 601 285.7 601 257 601C228.3 601 199.7 601 171.2 601C142.7 601 114.3 601 85.8 601C57.3 601 28.7 601 14.3 601L0 601Z" fill="#ef5f67"></path><path d="M0 459L14.3 458.7C28.7 458.3 57.3 457.7 85.8 463.7C114.3 469.7 142.7 482.3 171.2 484.8C199.7 487.3 228.3 479.7 257 478.5C285.7 477.3 314.3 482.7 343 485.7C371.7 488.7 400.3 489.3 428.8 491.7C457.3 494 485.7 498 514.2 494.3C542.7 490.7 571.3 479.3 600 473.5C628.7 467.7 657.3 467.3 685.8 464.5C714.3 461.7 742.7 456.3 771.2 453.3C799.7 450.3 828.3 449.7 857 453.5C885.7 457.3 914.3 465.7 943 468C971.7 470.3 1000.3 466.7 1028.8 463C1057.3 459.3 1085.7 455.7 1114.2 461.5C1142.7 467.3 1171.3 482.7 1185.7 490.3L1200 498L1200 601L1185.7 601C1171.3 601 1142.7 601 1114.2 601C1085.7 601 1057.3 601 1028.8 601C1000.3 601 971.7 601 943 601C914.3 601 885.7 601 857 601C828.3 601 799.7 601 771.2 601C742.7 601 714.3 601 685.8 601C657.3 601 628.7 601 600 601C571.3 601 542.7 601 514.2 601C485.7 601 457.3 601 428.8 601C400.3 601 371.7 601 343 601C314.3 601 285.7 601 257 601C228.3 601 199.7 601 171.2 601C142.7 601 114.3 601 85.8 601C57.3 601 28.7 601 14.3 601L0 601Z" fill="#e34c67"></path><path d="M0 507L14.3 503.8C28.7 500.7 57.3 494.3 85.8 494.8C114.3 495.3 142.7 502.7 171.2 510.5C199.7 518.3 228.3 526.7 257 524.5C285.7 522.3 314.3 509.7 343 503.5C371.7 497.3 400.3 497.7 428.8 502.5C457.3 507.3 485.7 516.7 514.2 516.7C542.7 516.7 571.3 507.3 600 505.7C628.7 504 657.3 510 685.8 509C714.3 508 742.7 500 771.2 496.2C799.7 492.3 828.3 492.7 857 493.5C885.7 494.3 914.3 495.7 943 496.7C971.7 497.7 1000.3 498.3 1028.8 501.5C1057.3 504.7 1085.7 510.3 1114.2 510.3C1142.7 510.3 1171.3 504.7 1185.7 501.8L1200 499L1200 601L1185.7 601C1171.3 601 1142.7 601 1114.2 601C1085.7 601 1057.3 601 1028.8 601C1000.3 601 971.7 601 943 601C914.3 601 885.7 601 857 601C828.3 601 799.7 601 771.2 601C742.7 601 714.3 601 685.8 601C657.3 601 628.7 601 600 601C571.3 601 542.7 601 514.2 601C485.7 601 457.3 601 428.8 601C400.3 601 371.7 601 343 601C314.3 601 285.7 601 257 601C228.3 601 199.7 601 171.2 601C142.7 601 114.3 601 85.8 601C57.3 601 28.7 601 14.3 601L0 601Z" fill="#d53867"></path><path d="M0 548L14.3 551.3C28.7 554.7 57.3 561.3 85.8 563.3C114.3 565.3 142.7 562.7 171.2 558.5C199.7 554.3 228.3 548.7 257 543.8C285.7 539 314.3 535 343 532.8C371.7 530.7 400.3 530.3 428.8 536C457.3 541.7 485.7 553.3 514.2 558C542.7 562.7 571.3 560.3 600 555.5C628.7 550.7 657.3 543.3 685.8 544.8C714.3 546.3 742.7 556.7 771.2 557.3C799.7 558 828.3 549 857 546.3C885.7 543.7 914.3 547.3 943 547.5C971.7 547.7 1000.3 544.3 1028.8 541.3C1057.3 538.3 1085.7 535.7 1114.2 535.5C1142.7 535.3 1171.3 537.7 1185.7 538.8L1200 540L1200 601L1185.7 601C1171.3 601 1142.7 601 1114.2 601C1085.7 601 1057.3 601 1028.8 601C1000.3 601 971.7 601 943 601C914.3 601 885.7 601 857 601C828.3 601 799.7 601 771.2 601C742.7 601 714.3 601 685.8 601C657.3 601 628.7 601 600 601C571.3 601 542.7 601 514.2 601C485.7 601 457.3 601 428.8 601C400.3 601 371.7 601 343 601C314.3 601 285.7 601 257 601C228.3 601 199.7 601 171.2 601C142.7 601 114.3 601 85.8 601C57.3 601 28.7 601 14.3 601L0 601Z" fill="#c62368"></path></svg>