<svg id="visual" viewBox="0 0 1200 600" width="1200" height="600" xmlns="http://www.w3.org/2000/svg" xmlns:xlink="http://www.w3.org/1999/xlink" version="1.1"><path d="M0 133L18.2 152C36.3 171 72.7 209 109 215C145.3 221 181.7 195 218 176C254.3 157 290.7 145 327 137C363.3 129 399.7 125 436 138C472.3 151 508.7 181 545.2 208C581.7 235 618.3 259 654.8 256C691.3 253 727.7 223 764 216C800.3 209 836.7 225 873 232C909.3 239 945.7 237 982 228C1018.3 219 1054.7 203 1091 186C1127.3 169 1163.7 151 1181.8 142L1200 133L1200 0L1181.8 0C1163.7 0 1127.3 0 1091 0C1054.7 0 1018.3 0 982 0C945.7 0 909.3 0 873 0C836.7 0 800.3 0 764 0C727.7 0 691.3 0 654.8 0C618.3 0 581.7 0 545.2 0C508.7 0 472.3 0 436 0C399.7 0 363.3 0 327 0C290.7 0 254.3 0 218 0C181.7 0 145.3 0 109 0C72.7 0 36.3 0 18.2 0L0 0Z" fill="#da6a94"></path><path d="M0 217L18.2 240C36.3 263 72.7 309 109 315C145.3 321 181.7 287 218 270C254.3 253 290.7 253 327 253C363.3 253 399.7 253 436 260C472.3 267 508.7 281 545.2 303C581.7 325 618.3 355 654.8 355C691.3 355 727.7 325 764 316C800.3 307 836.7 319 873 320C909.3 321 945.7 311 982 303C1018.3 295 1054.7 289 1091 268C1127.3 247 1163.7 211 1181.8 193L1200 175L1200 131L1181.8 140C1163.7 149 1127.3 167 1091 184C1054.7 201 1018.3 217 982 226C945.7 235 909.3 237 873 230C836.7 223 800.3 207 764 214C727.7 221 691.3 251 654.8 254C618.3 257 581.7 233 545.2 206C508.7 179 472.3 149 436 136C399.7 123 363.3 127 327 135C290.7 143 254.3 155 218 174C181.7 193 145.3 219 109 213C72.7 207 36.3 169 18.2 150L0 131Z" fill="#d14b7e"></path><path d="M0 385L18.2 400C36.3 415 72.7 445 109 455C145.3 465 181.7 455 218 441C254.3 427 290.7 409 327 418C363.3 427 399.7 463 436 475C472.3 487 508.7 475 545.2 477C581.7 479 618.3 495 654.8 497C691.3 499 727.7 487 764 473C800.3 459 836.7 443 873 434C909.3 425 945.7 423 982 419C1018.3 415 1054.7 409 1091 406C1127.3 403 1163.7 403 1181.8 403L1200 403L1200 173L1181.8 191C1163.7 209 1127.3 245 1091 266C1054.7 287 1018.3 293 982 301C945.7 309 909.3 319 873 318C836.7 317 800.3 305 764 314C727.7 323 691.3 353 654.8 353C618.3 353 581.7 323 545.2 301C508.7 279 472.3 265 436 258C399.7 251 363.3 251 327 251C290.7 251 254.3 251 218 268C181.7 285 145.3 319 109 313C72.7 307 36.3 261 18.2 238L0 215Z" fill="#c62368"></path><path d="M0 475L18.2 484C36.3 493 72.7 511 109 518C145.3 525 181.7 521 218 511C254.3 501 290.7 485 327 489C363.3 493 399.7 517 436 523C472.3 529 508.7 517 545.2 518C581.7 519 618.3 533 654.8 539C691.3 545 727.7 543 764 533C800.3 523 836.7 505 873 493C909.3 481 945.7 475 982 476C1018.3 477 1054.7 485 1091 482C1127.3 479 1163.7 465 1181.8 458L1200 451L1200 401L1181.8 401C1163.7 401 1127.3 401 1091 404C1054.7 407 1018.3 413 982 417C945.7 421 909.3 423 873 432C836.7 441 800.3 457 764 471C727.7 485 691.3 497 654.8 495C618.3 493 581.7 477 545.2 475C508.7 473 472.3 485 436 473C399.7 461 363.3 425 327 416C290.7 407 254.3 425 218 439C181.7 453 145.3 463 109 453C72.7 443 36.3 413 18.2 398L0 383Z" fill="#ab1f5a"></path><path d="M0 601L18.2 601C36.3 601 72.7 601 109 601C145.3 601 181.7 601 218 601C254.3 601 290.7 601 327 601C363.3 601 399.7 601 436 601C472.3 601 508.7 601 545.2 601C581.7 601 618.3 601 654.8 601C691.3 601 727.7 601 764 601C800.3 601 836.7 601 873 601C909.3 601 945.7 601 982 601C1018.3 601 1054.7 601 1091 601C1127.3 601 1163.7 601 1181.8 601L1200 601L1200 449L1181.8 456C1163.7 463 1127.3 477 1091 480C1054.7 483 1018.3 475 982 474C945.7 473 909.3 479 873 491C836.7 503 800.3 521 764 531C727.7 541 691.3 543 654.8 537C618.3 531 581.7 517 545.2 516C508.7 515 472.3 527 436 521C399.7 515 363.3 491 327 487C290.7 483 254.3 499 218 509C181.7 519 145.3 523 109 516C72.7 509 36.3 491 18.2 482L0 473Z" fill="#911b4d"></path></svg>